<svg version="1.1" xmlns="http://www.w3.org/2000/svg" xmlns:xlink="http://www.w3.org/1999/xlink" width="14" height="14"><defs/><g><path fill="rgb(255,255,255)" stroke="none" paint-order="stroke fill markers" fill-rule="evenodd" d=" M 12.999857902526855 8.999898791313171 C 12.999857902526855 8.999898791313171 8.999873638153076 8.999898791313171 8.999873638153076 8.999898791313171 C 8.999873638153076 8.999898791313171 8.999873638153076 12.999900817871094 8.999873638153076 12.999900817871094 C 8.999873638153076 12.999900817871094 5.999924182891846 12.999900817871094 5.999924182891846 12.999900817871094 C 5.999924182891846 12.999900817871094 5.999924182891846 8.999898791313171 5.999924182891846 8.999898791313171 C 5.999924182891846 8.999898791313171 1.9998624324798584 8.999898791313171 1.9998624324798584 8.999898791313171 C 1.9998624324798584 8.999898791313171 1.9998624324798584 5.9998422265052795 1.9998624324798584 5.9998422265052795 C 1.9998624324798584 5.9998422265052795 5.999924182891846 5.9998422265052795 5.999924182891846 5.9998422265052795 C 5.999924182891846 5.9998422265052795 5.999924182891846 1.9999502897262573 5.999924182891846 1.9999502897262573 C 5.999924182891846 1.9999502897262573 8.999873638153076 1.9999502897262573 8.999873638153076 1.9999502897262573 C 8.999873638153076 1.9999502897262573 8.999873638153076 5.9998422265052795 8.999873638153076 5.9998422265052795 C 8.999873638153076 5.9998422265052795 12.999857902526855 5.9998422265052795 12.999857902526855 5.9998422265052795 C 12.999857902526855 5.9998422265052795 12.999857902526855 8.999898791313171 12.999857902526855 8.999898791313171 Z"/></g></svg>